<?xml version="1.0" encoding="UTF-8" standalone="no"?>
<!DOCTYPE svg PUBLIC "-//W3C//DTD SVG 1.1//EN"
 "http://www.w3.org/Graphics/SVG/1.1/DTD/svg11.dtd">
<!-- Generated by graphviz version 2.42.4 (0)
 -->
<!-- Title: PageStates Pages: 1 -->
<svg width="1513pt" height="754pt"
 viewBox="0.00 0.00 1513.20 754.20" xmlns="http://www.w3.org/2000/svg" xmlns:xlink="http://www.w3.org/1999/xlink">
<g id="graph0" class="graph" transform="scale(1 1) rotate(0) translate(21.6 732.6)">
<title>PageStates</title>
<polygon fill="white" stroke="transparent" points="-21.6,21.6 -21.6,-732.6 1491.6,-732.6 1491.6,21.6 -21.6,21.6"/>
<g id="clust1" class="cluster">
<title>cluster_room_ui</title>
<path fill="white" stroke="#b8a78f" d="M20,-387C20,-387 865.5,-387 865.5,-387 871.5,-387 877.5,-393 877.5,-399 877.5,-399 877.5,-691 877.5,-691 877.5,-697 871.5,-703 865.5,-703 865.5,-703 20,-703 20,-703 14,-703 8,-697 8,-691 8,-691 8,-399 8,-399 8,-393 14,-387 20,-387"/>
<text text-anchor="middle" x="442.75" y="-687.8" font-family="Noto Sans CJK SC" font-size="14.00">房间内页面状态</text>
</g>
<!-- Boot -->
<g id="node1" class="node">
<title>Boot</title>
<path fill="#f6f1e7" stroke="#6b5a45" d="M70,-280C70,-280 30,-280 30,-280 24,-280 18,-274 18,-268 18,-268 18,-256 18,-256 18,-250 24,-244 30,-244 30,-244 70,-244 70,-244 76,-244 82,-250 82,-256 82,-256 82,-268 82,-268 82,-274 76,-280 70,-280"/>
<text text-anchor="middle" x="50" y="-265.2" font-family="Noto Sans CJK SC" font-size="11.00">启动</text>
<text text-anchor="middle" x="50" y="-253.2" font-family="Noto Sans CJK SC" font-size="11.00">Booting</text>
</g>
<!-- Home -->
<g id="node2" class="node">
<title>Home</title>
<path fill="#f6f1e7" stroke="#6b5a45" d="M276.5,-280C276.5,-280 214.5,-280 214.5,-280 208.5,-280 202.5,-274 202.5,-268 202.5,-268 202.5,-256 202.5,-256 202.5,-250 208.5,-244 214.5,-244 214.5,-244 276.5,-244 276.5,-244 282.5,-244 288.5,-250 288.5,-256 288.5,-256 288.5,-268 288.5,-268 288.5,-274 282.5,-280 276.5,-280"/>
<text text-anchor="middle" x="245.5" y="-265.2" font-family="Noto Sans CJK SC" font-size="11.00">首页可用</text>
<text text-anchor="middle" x="245.5" y="-253.2" font-family="Noto Sans CJK SC" font-size="11.00">HomeReady</text>
</g>
<!-- Boot&#45;&gt;Home -->
<g id="edge1" class="edge">
<title>Boot&#45;&gt;Home</title>
<path fill="none" stroke="#6b5a45" d="M82.09,-262C111.75,-262 156.99,-262 192.19,-262"/>
<polygon fill="#6b5a45" stroke="#6b5a45" points="192.3,-265.5 202.3,-262 192.3,-258.5 192.3,-265.5"/>
<text text-anchor="middle" x="135.5" y="-264.8" font-family="Noto Sans CJK SC" font-size="9.00">初始化完成</text>
</g>
<!-- Conn -->
<g id="node3" class="node">
<title>Conn</title>
<path fill="#f6f1e7" stroke="#6b5a45" d="M476,-225C476,-225 419,-225 419,-225 413,-225 407,-219 407,-213 407,-213 407,-201 407,-201 407,-195 413,-189 419,-189 419,-189 476,-189 476,-189 482,-189 488,-195 488,-201 488,-201 488,-213 488,-213 488,-219 482,-225 476,-225"/>
<text text-anchor="middle" x="447.5" y="-210.2" font-family="Noto Sans CJK SC" font-size="11.00">连接后端</text>
<text text-anchor="middle" x="447.5" y="-198.2" font-family="Noto Sans CJK SC" font-size="11.00">Connecting</text>
</g>
<!-- Home&#45;&gt;Conn -->
<g id="edge2" class="edge">
<title>Home&#45;&gt;Conn</title>
<path fill="none" stroke="#6b5a45" d="M288.91,-250.34C320.5,-241.65 363.73,-229.76 396.91,-220.64"/>
<polygon fill="#6b5a45" stroke="#6b5a45" points="398.15,-223.93 406.87,-217.9 396.3,-217.18 398.15,-223.93"/>
<text text-anchor="middle" x="355.5" y="-242.8" font-family="Noto Sans CJK SC" font-size="9.00">创建/加入</text>
</g>
<!-- Wake -->
<g id="node4" class="node">
<title>Wake</title>
<path fill="#f6f1e7" stroke="#6b5a45" d="M680,-143C680,-143 610,-143 610,-143 604,-143 598,-137 598,-131 598,-131 598,-119 598,-119 598,-113 604,-107 610,-107 610,-107 680,-107 680,-107 686,-107 692,-113 692,-119 692,-119 692,-131 692,-131 692,-137 686,-143 680,-143"/>
<text text-anchor="middle" x="645" y="-128.2" font-family="Noto Sans CJK SC" font-size="11.00">后端准备中</text>
<text text-anchor="middle" x="645" y="-116.2" font-family="Noto Sans CJK SC" font-size="11.00">WakingServer</text>
</g>
<!-- Conn&#45;&gt;Wake -->
<g id="edge3" class="edge">
<title>Conn&#45;&gt;Wake</title>
<path fill="none" stroke="#6b5a45" d="M478.99,-188.89C489.3,-183.12 500.98,-176.96 512,-172 536.47,-160.99 564.36,-150.74 588.18,-142.64"/>
<polygon fill="#6b5a45" stroke="#6b5a45" points="589.4,-145.92 597.77,-139.42 587.18,-139.29 589.4,-145.92"/>
<text text-anchor="middle" x="543" y="-174.8" font-family="Noto Sans CJK SC" font-size="9.00">连接较慢</text>
</g>
<!-- Join -->
<g id="node5" class="node">
<title>Join</title>
<path fill="#f6f1e7" stroke="#6b5a45" d="M860,-213C860,-213 789,-213 789,-213 783,-213 777,-207 777,-201 777,-201 777,-189 777,-189 777,-183 783,-177 789,-177 789,-177 860,-177 860,-177 866,-177 872,-183 872,-189 872,-189 872,-201 872,-201 872,-207 866,-213 860,-213"/>
<text text-anchor="middle" x="824.5" y="-198.2" font-family="Noto Sans CJK SC" font-size="11.00">加入/恢复房间</text>
<text text-anchor="middle" x="824.5" y="-186.2" font-family="Noto Sans CJK SC" font-size="11.00">JoiningRoom</text>
</g>
<!-- Conn&#45;&gt;Join -->
<g id="edge4" class="edge">
<title>Conn&#45;&gt;Join</title>
<path fill="none" stroke="#6b5a45" d="M488.28,-205.73C554.98,-203.59 689.6,-199.28 766.4,-196.83"/>
<polygon fill="#6b5a45" stroke="#6b5a45" points="766.96,-200.31 776.84,-196.49 766.74,-193.31 766.96,-200.31"/>
<text text-anchor="middle" x="645" y="-205.8" font-family="Noto Sans CJK SC" font-size="9.00">连接成功</text>
</g>
<!-- Wake&#45;&gt;Join -->
<g id="edge5" class="edge">
<title>Wake&#45;&gt;Join</title>
<path fill="none" stroke="#6b5a45" d="M691.71,-143.03C715.02,-152.22 743.55,-163.47 768.09,-173.15"/>
<polygon fill="#6b5a45" stroke="#6b5a45" points="767.05,-176.5 777.64,-176.91 769.62,-169.99 767.05,-176.5"/>
<text text-anchor="middle" x="734.5" y="-169.8" font-family="Noto Sans CJK SC" font-size="9.00">连接成功</text>
</g>
<!-- Room -->
<g id="node6" class="node">
<title>Room</title>
<path fill="#f6f1e7" stroke="#6b5a45" d="M1034.5,-132C1034.5,-132 973.5,-132 973.5,-132 967.5,-132 961.5,-126 961.5,-120 961.5,-120 961.5,-108 961.5,-108 961.5,-102 967.5,-96 973.5,-96 973.5,-96 1034.5,-96 1034.5,-96 1040.5,-96 1046.5,-102 1046.5,-108 1046.5,-108 1046.5,-120 1046.5,-120 1046.5,-126 1040.5,-132 1034.5,-132"/>
<text text-anchor="middle" x="1004" y="-117.2" font-family="Noto Sans CJK SC" font-size="11.00">房间已同步</text>
<text text-anchor="middle" x="1004" y="-105.2" font-family="Noto Sans CJK SC" font-size="11.00">RoomReady</text>
</g>
<!-- Join&#45;&gt;Room -->
<g id="edge6" class="edge">
<title>Join&#45;&gt;Room</title>
<path fill="none" stroke="#6b5a45" d="M860.82,-176.99C872.01,-171.42 884.47,-165.34 896,-160 914.04,-151.65 934,-142.93 951.75,-135.36"/>
<polygon fill="#6b5a45" stroke="#6b5a45" points="953.52,-138.41 961.35,-131.28 950.78,-131.97 953.52,-138.41"/>
<text text-anchor="middle" x="914.5" y="-162.8" font-family="Noto Sans CJK SC" font-size="9.00">快照成功</text>
</g>
<!-- Missing -->
<g id="node8" class="node">
<title>Missing</title>
<path fill="#f7e5e1" stroke="#6b5a45" d="M1458,-213C1458,-213 1376,-213 1376,-213 1370,-213 1364,-207 1364,-201 1364,-201 1364,-189 1364,-189 1364,-183 1370,-177 1376,-177 1376,-177 1458,-177 1458,-177 1464,-177 1470,-183 1470,-189 1470,-189 1470,-201 1470,-201 1470,-207 1464,-213 1458,-213"/>
<text text-anchor="middle" x="1417" y="-198.2" font-family="Noto Sans CJK SC" font-size="11.00">房间不存在/失效</text>
<text text-anchor="middle" x="1417" y="-186.2" font-family="Noto Sans CJK SC" font-size="11.00">RoomNotFound</text>
</g>
<!-- Join&#45;&gt;Missing -->
<g id="edge7" class="edge">
<title>Join&#45;&gt;Missing</title>
<path fill="none" stroke="#6b5a45" d="M872.33,-195C977.96,-195 1234.77,-195 1353.68,-195"/>
<polygon fill="#6b5a45" stroke="#6b5a45" points="1353.72,-198.5 1363.72,-195 1353.72,-191.5 1353.72,-198.5"/>
<text text-anchor="middle" x="1119" y="-197.8" font-family="Noto Sans CJK SC" font-size="9.00">ROOM_NOT_FOUND</text>
</g>
<!-- Cap -->
<g id="node10" class="node">
<title>Cap</title>
<path fill="#f7e5e1" stroke="#6b5a45" d="M1039,-290C1039,-290 969,-290 969,-290 963,-290 957,-284 957,-278 957,-278 957,-266 957,-266 957,-260 963,-254 969,-254 969,-254 1039,-254 1039,-254 1045,-254 1051,-260 1051,-266 1051,-266 1051,-278 1051,-278 1051,-284 1045,-290 1039,-290"/>
<text text-anchor="middle" x="1004" y="-275.2" font-family="Noto Sans CJK SC" font-size="11.00">观众席已满</text>
<text text-anchor="middle" x="1004" y="-263.2" font-family="Noto Sans CJK SC" font-size="11.00">CapacityError</text>
</g>
<!-- Join&#45;&gt;Cap -->
<g id="edge8" class="edge">
<title>Join&#45;&gt;Cap</title>
<path fill="none" stroke="#6b5a45" d="M867.12,-213.05C892.51,-224.07 925.15,-238.23 952.07,-249.91"/>
<polygon fill="#6b5a45" stroke="#6b5a45" points="950.77,-253.16 961.34,-253.93 953.56,-246.74 950.77,-253.16"/>
<text text-anchor="middle" x="914.5" y="-243.8" font-family="Noto Sans CJK SC" font-size="9.00">观众已满</text>
</g>
<!-- Reconn -->
<g id="node7" class="node">
<title>Reconn</title>
<path fill="#f6f1e7" stroke="#6b5a45" d="M1267,-146C1267,-146 1199,-146 1199,-146 1193,-146 1187,-140 1187,-134 1187,-134 1187,-122 1187,-122 1187,-116 1193,-110 1199,-110 1199,-110 1267,-110 1267,-110 1273,-110 1279,-116 1279,-122 1279,-122 1279,-134 1279,-134 1279,-140 1273,-146 1267,-146"/>
<text text-anchor="middle" x="1233" y="-131.2" font-family="Noto Sans CJK SC" font-size="11.00">断线重连</text>
<text text-anchor="middle" x="1233" y="-119.2" font-family="Noto Sans CJK SC" font-size="11.00">Reconnecting</text>
</g>
<!-- Room&#45;&gt;Reconn -->
<g id="edge9" class="edge">
<title>Room&#45;&gt;Reconn</title>
<path fill="none" stroke="#6b5a45" d="M1046.57,-104.55C1078.62,-98.72 1123.92,-93.63 1163,-101 1169.79,-102.28 1176.78,-104.22 1183.57,-106.47"/>
<polygon fill="#6b5a45" stroke="#6b5a45" points="1182.75,-109.89 1193.34,-109.97 1185.11,-103.3 1182.75,-109.89"/>
<text text-anchor="middle" x="1119" y="-103.8" font-family="Noto Sans CJK SC" font-size="9.00">Socket 断开</text>
</g>
<!-- Closed -->
<g id="node9" class="node">
<title>Closed</title>
<path fill="#f7e5e1" stroke="#6b5a45" d="M1265,-45C1265,-45 1201,-45 1201,-45 1195,-45 1189,-39 1189,-33 1189,-33 1189,-21 1189,-21 1189,-15 1195,-9 1201,-9 1201,-9 1265,-9 1265,-9 1271,-9 1277,-15 1277,-21 1277,-21 1277,-33 1277,-33 1277,-39 1271,-45 1265,-45"/>
<text text-anchor="middle" x="1233" y="-30.2" font-family="Noto Sans CJK SC" font-size="11.00">房间已关闭</text>
<text text-anchor="middle" x="1233" y="-18.2" font-family="Noto Sans CJK SC" font-size="11.00">RoomClosed</text>
</g>
<!-- Room&#45;&gt;Closed -->
<g id="edge12" class="edge">
<title>Room&#45;&gt;Closed</title>
<path fill="none" stroke="#6b5a45" d="M1039.86,-95.99C1050.96,-90.55 1063.37,-84.76 1075,-80 1109.11,-66.02 1148.41,-52.76 1179.15,-43"/>
<polygon fill="#6b5a45" stroke="#6b5a45" points="1180.33,-46.3 1188.82,-39.96 1178.23,-39.62 1180.33,-46.3"/>
<text text-anchor="middle" x="1119" y="-82.8" font-family="Noto Sans CJK SC" font-size="9.00">room:closed</text>
</g>
<!-- Reconn&#45;&gt;Room -->
<g id="edge10" class="edge">
<title>Reconn&#45;&gt;Room</title>
<path fill="none" stroke="#6b5a45" d="M1186.74,-125.21C1149.25,-122.9 1095.96,-119.61 1056.78,-117.19"/>
<polygon fill="#6b5a45" stroke="#6b5a45" points="1056.83,-113.69 1046.64,-116.57 1056.4,-120.68 1056.83,-113.69"/>
<text text-anchor="middle" x="1119" y="-126.8" font-family="Noto Sans CJK SC" font-size="9.00">重连+同步</text>
</g>
<!-- Reconn&#45;&gt;Missing -->
<g id="edge11" class="edge">
<title>Reconn&#45;&gt;Missing</title>
<path fill="none" stroke="#6b5a45" d="M1279.07,-140.11C1298.08,-145.6 1320.32,-152.54 1340,-160 1349.88,-163.75 1360.28,-168.19 1370.11,-172.63"/>
<polygon fill="#6b5a45" stroke="#6b5a45" points="1368.78,-175.87 1379.33,-176.87 1371.7,-169.51 1368.78,-175.87"/>
<text text-anchor="middle" x="1321.5" y="-162.8" font-family="Noto Sans CJK SC" font-size="9.00">房间失效</text>
</g>
<!-- Missing&#45;&gt;Home -->
<g id="edge13" class="edge">
<title>Missing&#45;&gt;Home</title>
<path fill="none" stroke="#6b5a45" d="M1407.19,-213.19C1384.8,-256.47 1321.27,-362 1234,-362 446.5,-362 446.5,-362 446.5,-362 379.19,-362 311.31,-316.13 274.51,-286.52"/>
<polygon fill="#6b5a45" stroke="#6b5a45" points="276.66,-283.75 266.71,-280.11 272.21,-289.16 276.66,-283.75"/>
<text text-anchor="middle" x="824.5" y="-364.8" font-family="Noto Sans CJK SC" font-size="9.00">返回首页</text>
</g>
<!-- Closed&#45;&gt;Home -->
<g id="edge14" class="edge">
<title>Closed&#45;&gt;Home</title>
<path fill="none" stroke="#6b5a45" d="M1188.66,-18.75C1143.12,-10.81 1069.29,0 1005,0 446.5,0 446.5,0 446.5,0 329.72,0 272.03,-166.51 253.43,-234.04"/>
<polygon fill="#6b5a45" stroke="#6b5a45" points="249.97,-233.43 250.78,-243.99 256.74,-235.23 249.97,-233.43"/>
<text text-anchor="middle" x="734.5" y="-2.8" font-family="Noto Sans CJK SC" font-size="9.00">返回首页</text>
</g>
<!-- Cap&#45;&gt;Home -->
<g id="edge15" class="edge">
<title>Cap&#45;&gt;Home</title>
<path fill="none" stroke="#6b5a45" d="M956.69,-275.63C920.89,-278.13 870.09,-281 825.5,-281 446.5,-281 446.5,-281 446.5,-281 396.13,-281 338.93,-274.95 298.65,-269.68"/>
<polygon fill="#6b5a45" stroke="#6b5a45" points="298.91,-266.18 288.53,-268.33 297.98,-273.12 298.91,-266.18"/>
<text text-anchor="middle" x="645" y="-283.8" font-family="Noto Sans CJK SC" font-size="9.00">返回首页</text>
</g>
<!-- Waiting -->
<g id="node11" class="node">
<title>Waiting</title>
<path fill="#f6f1e7" stroke="#6b5a45" d="M72,-648C72,-648 28,-648 28,-648 22,-648 16,-642 16,-636 16,-636 16,-624 16,-624 16,-618 22,-612 28,-612 28,-612 72,-612 72,-612 78,-612 84,-618 84,-624 84,-624 84,-636 84,-636 84,-642 78,-648 72,-648"/>
<text text-anchor="middle" x="50" y="-627.2" font-family="Noto Sans CJK SC" font-size="11.00">等待好友</text>
</g>
<!-- Starting -->
<g id="node12" class="node">
<title>Starting</title>
<path fill="#f6f1e7" stroke="#6b5a45" d="M292,-648C292,-648 199,-648 199,-648 193,-648 187,-642 187,-636 187,-636 187,-624 187,-624 187,-618 193,-612 199,-612 199,-612 292,-612 292,-612 298,-612 304,-618 304,-624 304,-624 304,-636 304,-636 304,-642 298,-648 292,-648"/>
<text text-anchor="middle" x="245.5" y="-627.2" font-family="Noto Sans CJK SC" font-size="11.00">随机分色/交换颜色</text>
</g>
<!-- Waiting&#45;&gt;Starting -->
<g id="edge16" class="edge">
<title>Waiting&#45;&gt;Starting</title>
<path fill="none" stroke="#6b5a45" d="M84.26,-630C109.5,-630 145.07,-630 176.28,-630"/>
<polygon fill="#6b5a45" stroke="#6b5a45" points="176.68,-633.5 186.68,-630 176.68,-626.5 176.68,-633.5"/>
<text text-anchor="middle" x="135.5" y="-632.8" font-family="Noto Sans CJK SC" font-size="9.00">第二棋手加入</text>
</g>
<!-- Playing -->
<g id="node13" class="node">
<title>Playing</title>
<path fill="#f6f1e7" stroke="#6b5a45" d="M469.5,-562C469.5,-562 425.5,-562 425.5,-562 419.5,-562 413.5,-556 413.5,-550 413.5,-550 413.5,-538 413.5,-538 413.5,-532 419.5,-526 425.5,-526 425.5,-526 469.5,-526 469.5,-526 475.5,-526 481.5,-532 481.5,-538 481.5,-538 481.5,-550 481.5,-550 481.5,-556 475.5,-562 469.5,-562"/>
<text text-anchor="middle" x="447.5" y="-541.2" font-family="Noto Sans CJK SC" font-size="11.00">正常对局</text>
</g>
<!-- Starting&#45;&gt;Playing -->
<g id="edge17" class="edge">
<title>Starting&#45;&gt;Playing</title>
<path fill="none" stroke="#6b5a45" d="M288.43,-611.97C322.35,-597.38 369.92,-576.93 403.99,-562.28"/>
<polygon fill="#6b5a45" stroke="#6b5a45" points="405.42,-565.47 413.22,-558.31 402.66,-559.04 405.42,-565.47"/>
<text text-anchor="middle" x="355.5" y="-596.8" font-family="Noto Sans CJK SC" font-size="9.00">到达开始时间</text>
</g>
<!-- Paused -->
<g id="node14" class="node">
<title>Paused</title>
<path fill="#f6f1e7" stroke="#6b5a45" d="M667,-550C667,-550 623,-550 623,-550 617,-550 611,-544 611,-538 611,-538 611,-526 611,-526 611,-520 617,-514 623,-514 623,-514 667,-514 667,-514 673,-514 679,-520 679,-526 679,-526 679,-538 679,-538 679,-544 673,-550 667,-550"/>
<text text-anchor="middle" x="645" y="-535.2" font-family="Noto Sans CJK SC" font-size="11.00">棋手离线</text>
<text text-anchor="middle" x="645" y="-523.2" font-family="Noto Sans CJK SC" font-size="11.00">暂停</text>
</g>
<!-- Playing&#45;&gt;Paused -->
<g id="edge18" class="edge">
<title>Playing&#45;&gt;Paused</title>
<path fill="none" stroke="#6b5a45" d="M481.66,-541.96C514.38,-539.96 564.58,-536.87 600.49,-534.67"/>
<polygon fill="#6b5a45" stroke="#6b5a45" points="600.91,-538.15 610.67,-534.05 600.48,-531.16 600.91,-538.15"/>
<text text-anchor="middle" x="543" y="-541.8" font-family="Noto Sans CJK SC" font-size="9.00">棋手断线/离开</text>
</g>
<!-- Undo -->
<g id="node15" class="node">
<title>Undo</title>
<path fill="#f6f1e7" stroke="#6b5a45" d="M672.5,-470C672.5,-470 617.5,-470 617.5,-470 611.5,-470 605.5,-464 605.5,-458 605.5,-458 605.5,-446 605.5,-446 605.5,-440 611.5,-434 617.5,-434 617.5,-434 672.5,-434 672.5,-434 678.5,-434 684.5,-440 684.5,-446 684.5,-446 684.5,-458 684.5,-458 684.5,-464 678.5,-470 672.5,-470"/>
<text text-anchor="middle" x="645" y="-449.2" font-family="Noto Sans CJK SC" font-size="11.00">悔棋待处理</text>
</g>
<!-- Playing&#45;&gt;Undo -->
<g id="edge20" class="edge">
<title>Playing&#45;&gt;Undo</title>
<path fill="none" stroke="#6b5a45" d="M452.29,-525.72C459.01,-498.57 475.85,-448.51 512,-427 539.25,-410.78 574.79,-418.84 602.13,-429.97"/>
<polygon fill="#6b5a45" stroke="#6b5a45" points="600.86,-433.24 611.43,-434 603.64,-426.81 600.86,-433.24"/>
<text text-anchor="middle" x="543" y="-429.8" font-family="Noto Sans CJK SC" font-size="9.00">申请悔棋</text>
</g>
<!-- Finished -->
<g id="node16" class="node">
<title>Finished</title>
<path fill="#f6f1e7" stroke="#6b5a45" d="M669,-629C669,-629 621,-629 621,-629 615,-629 609,-623 609,-617 609,-617 609,-605 609,-605 609,-599 615,-593 621,-593 621,-593 669,-593 669,-593 675,-593 681,-599 681,-605 681,-605 681,-617 681,-617 681,-623 675,-629 669,-629"/>
<text text-anchor="middle" x="645" y="-608.2" font-family="Noto Sans CJK SC" font-size="11.00">胜负/和棋</text>
</g>
<!-- Playing&#45;&gt;Finished -->
<g id="edge22" class="edge">
<title>Playing&#45;&gt;Finished</title>
<path fill="none" stroke="#6b5a45" d="M481.66,-555.37C513.93,-566.42 563.18,-583.3 598.97,-595.57"/>
<polygon fill="#6b5a45" stroke="#6b5a45" points="598.09,-598.97 608.69,-598.9 600.36,-592.35 598.09,-598.97"/>
<text text-anchor="middle" x="543" y="-587.8" font-family="Noto Sans CJK SC" font-size="9.00">五连/满盘</text>
</g>
<!-- Paused&#45;&gt;Playing -->
<g id="edge19" class="edge">
<title>Paused&#45;&gt;Playing</title>
<path fill="none" stroke="#6b5a45" d="M610.97,-524.59C584.14,-519.68 545.41,-515.14 512,-521 505.17,-522.2 498.11,-524.07 491.29,-526.24"/>
<polygon fill="#6b5a45" stroke="#6b5a45" points="489.84,-523.04 481.52,-529.59 492.11,-529.66 489.84,-523.04"/>
<text text-anchor="middle" x="543" y="-523.8" font-family="Noto Sans CJK SC" font-size="9.00">双方在线</text>
</g>
<!-- Undo&#45;&gt;Playing -->
<g id="edge21" class="edge">
<title>Undo&#45;&gt;Playing</title>
<path fill="none" stroke="#6b5a45" d="M605.35,-463.16C578.43,-471.61 542.11,-484.43 512,-500 501.04,-505.67 489.75,-512.95 479.78,-519.95"/>
<polygon fill="#6b5a45" stroke="#6b5a45" points="477.48,-517.3 471.41,-525.98 481.57,-522.98 477.48,-517.3"/>
<text text-anchor="middle" x="543" y="-502.8" font-family="Noto Sans CJK SC" font-size="9.00">同意/拒绝/取消</text>
</g>
<!-- Rematch -->
<g id="node17" class="node">
<title>Rematch</title>
<path fill="#f6f1e7" stroke="#6b5a45" d="M857.5,-661C857.5,-661 791.5,-661 791.5,-661 785.5,-661 779.5,-655 779.5,-649 779.5,-649 779.5,-637 779.5,-637 779.5,-631 785.5,-625 791.5,-625 791.5,-625 857.5,-625 857.5,-625 863.5,-625 869.5,-631 869.5,-637 869.5,-637 869.5,-649 869.5,-649 869.5,-655 863.5,-661 857.5,-661"/>
<text text-anchor="middle" x="824.5" y="-640.2" font-family="Noto Sans CJK SC" font-size="11.00">等待再战确认</text>
</g>
<!-- Finished&#45;&gt;Rematch -->
<g id="edge23" class="edge">
<title>Finished&#45;&gt;Rematch</title>
<path fill="none" stroke="#6b5a45" d="M681.07,-617.32C706.28,-621.87 740.76,-628.08 769.48,-633.26"/>
<polygon fill="#6b5a45" stroke="#6b5a45" points="768.91,-636.71 779.37,-635.04 770.15,-629.83 768.91,-636.71"/>
<text text-anchor="middle" x="734.5" y="-631.8" font-family="Noto Sans CJK SC" font-size="9.00">一方请求</text>
</g>
<!-- Rematch&#45;&gt;Starting -->
<g id="edge24" class="edge">
<title>Rematch&#45;&gt;Starting</title>
<path fill="none" stroke="#6b5a45" d="M779.14,-645.9C770.47,-646.36 761.46,-646.76 753,-647 736.56,-647.47 732.44,-647.14 716,-647 663.55,-646.56 650.43,-646.56 598,-645 499.22,-642.06 384.9,-636.84 314.14,-633.4"/>
<polygon fill="#6b5a45" stroke="#6b5a45" points="314.18,-629.9 304.02,-632.91 313.84,-636.89 314.18,-629.9"/>
<text text-anchor="middle" x="543" y="-646.8" font-family="Noto Sans CJK SC" font-size="9.00">双方确认</text>
</g>
</g>
</svg>
