<?xml version="1.0" encoding="UTF-8" standalone="no"?>
<!DOCTYPE svg PUBLIC "-//W3C//DTD SVG 1.1//EN"
 "http://www.w3.org/Graphics/SVG/1.1/DTD/svg11.dtd">
<!-- Generated by graphviz version 2.42.4 (0)
 -->
<!-- Title: RoomMachine Pages: 1 -->
<svg width="1526pt" height="603pt"
 viewBox="0.00 0.00 1525.63 602.73" xmlns="http://www.w3.org/2000/svg" xmlns:xlink="http://www.w3.org/1999/xlink">
<g id="graph0" class="graph" transform="scale(1 1) rotate(0) translate(21.6 581.13)">
<title>RoomMachine</title>
<polygon fill="white" stroke="transparent" points="-21.6,21.6 -21.6,-581.13 1504.03,-581.13 1504.03,21.6 -21.6,21.6"/>
<!-- Start -->
<g id="node1" class="node">
<title>Start</title>
<ellipse fill="#f6f1e7" stroke="#6b5a45" cx="1.8" cy="-458.53" rx="1.8" ry="1.8"/>
</g>
<!-- WAITING -->
<g id="node2" class="node">
<title>WAITING</title>
<ellipse fill="#f6f1e7" stroke="#6b5a45" cx="179.6" cy="-458.53" rx="70.01" ry="28.07"/>
<text text-anchor="middle" x="179.6" y="-461.93" font-family="Noto Sans CJK SC" font-size="12.00">WAITING</text>
<text text-anchor="middle" x="179.6" y="-448.93" font-family="Noto Sans CJK SC" font-size="12.00">等待第二棋手</text>
</g>
<!-- Start&#45;&gt;WAITING -->
<g id="edge1" class="edge">
<title>Start&#45;&gt;WAITING</title>
<path fill="none" stroke="#6b5a45" d="M3.92,-458.53C11.56,-458.53 56.82,-458.53 99.36,-458.53"/>
<polygon fill="#6b5a45" stroke="#6b5a45" points="99.52,-462.03 109.52,-458.53 99.52,-455.03 99.52,-462.03"/>
<text text-anchor="middle" x="56.6" y="-461.33" font-family="Noto Sans CJK SC" font-size="9.00">room:create</text>
</g>
<!-- STARTING -->
<g id="node3" class="node">
<title>STARTING</title>
<ellipse fill="#f6f1e7" stroke="#6b5a45" cx="448.92" cy="-294.53" rx="81.13" ry="28.07"/>
<text text-anchor="middle" x="448.92" y="-297.93" font-family="Noto Sans CJK SC" font-size="12.00">STARTING</text>
<text text-anchor="middle" x="448.92" y="-284.93" font-family="Noto Sans CJK SC" font-size="12.00">分色/换色倒计时</text>
</g>
<!-- WAITING&#45;&gt;STARTING -->
<g id="edge2" class="edge">
<title>WAITING&#45;&gt;STARTING</title>
<path fill="none" stroke="#6b5a45" d="M218.9,-435.03C266.4,-405.9 347.41,-356.2 399.26,-324.39"/>
<polygon fill="#6b5a45" stroke="#6b5a45" points="401.26,-327.27 407.95,-319.06 397.59,-321.3 401.26,-327.27"/>
<text text-anchor="middle" x="308.61" y="-408.33" font-family="Noto Sans CJK SC" font-size="9.00">第二棋手加入</text>
<text text-anchor="middle" x="308.61" y="-398.33" font-family="Noto Sans CJK SC" font-size="9.00">服务端随机分色</text>
</g>
<!-- CLOSED -->
<g id="node7" class="node">
<title>CLOSED</title>
<ellipse fill="#f7e5e1" stroke="#6b5a45" cx="1263.31" cy="-370.53" rx="61.54" ry="28.07"/>
<text text-anchor="middle" x="1263.31" y="-373.93" font-family="Noto Sans CJK SC" font-size="12.00">CLOSED</text>
<text text-anchor="middle" x="1263.31" y="-360.93" font-family="Noto Sans CJK SC" font-size="12.00">通知并删除</text>
</g>
<!-- WAITING&#45;&gt;CLOSED -->
<g id="edge10" class="edge">
<title>WAITING&#45;&gt;CLOSED</title>
<path fill="none" stroke="#6b5a45" d="M220.82,-481.49C271.91,-508.45 363.6,-549.53 447.92,-549.53 447.92,-549.53 447.92,-549.53 967.81,-549.53 1078.44,-549.53 1182.9,-456.15 1232.38,-404.28"/>
<polygon fill="#6b5a45" stroke="#6b5a45" points="1234.98,-406.63 1239.28,-396.94 1229.88,-401.83 1234.98,-406.63"/>
<text text-anchor="middle" x="701.27" y="-552.33" font-family="Noto Sans CJK SC" font-size="9.00">双方明确离开/结束</text>
</g>
<!-- PLAYING -->
<g id="node4" class="node">
<title>PLAYING</title>
<ellipse fill="#e7f0e2" stroke="#6b5a45" cx="701.27" cy="-221.53" rx="53.07" ry="28.07"/>
<text text-anchor="middle" x="701.27" y="-224.93" font-family="Noto Sans CJK SC" font-size="12.00">PLAYING</text>
<text text-anchor="middle" x="701.27" y="-211.93" font-family="Noto Sans CJK SC" font-size="12.00">正常对局</text>
</g>
<!-- STARTING&#45;&gt;PLAYING -->
<g id="edge3" class="edge">
<title>STARTING&#45;&gt;PLAYING</title>
<path fill="none" stroke="#6b5a45" d="M511.81,-276.49C552.52,-264.61 605.36,-249.21 644.72,-237.73"/>
<polygon fill="#6b5a45" stroke="#6b5a45" points="645.8,-241.06 654.42,-234.9 643.84,-234.34 645.8,-241.06"/>
<text text-anchor="middle" x="589.24" y="-274.33" font-family="Noto Sans CJK SC" font-size="9.00">now ≥ startsAt</text>
<text text-anchor="middle" x="589.24" y="-264.33" font-family="Noto Sans CJK SC" font-size="9.00">且双方在线</text>
</g>
<!-- PAUSED -->
<g id="node5" class="node">
<title>PAUSED</title>
<ellipse fill="#fff1d6" stroke="#6b5a45" cx="966.81" cy="-79.53" rx="70.01" ry="28.07"/>
<text text-anchor="middle" x="966.81" y="-82.93" font-family="Noto Sans CJK SC" font-size="12.00">PAUSED</text>
<text text-anchor="middle" x="966.81" y="-69.93" font-family="Noto Sans CJK SC" font-size="12.00">棋手离线暂停</text>
</g>
<!-- STARTING&#45;&gt;PAUSED -->
<g id="edge4" class="edge">
<title>STARTING&#45;&gt;PAUSED</title>
<path fill="none" stroke="#6b5a45" d="M473.95,-267.27C524.34,-212.43 647.52,-90.19 781.31,-45.53 823.42,-31.47 873,-42.03 910.15,-54.97"/>
<polygon fill="#6b5a45" stroke="#6b5a45" points="909.21,-58.35 919.8,-58.48 911.6,-51.77 909.21,-58.35"/>
<text text-anchor="middle" x="701.27" y="-113.33" font-family="Noto Sans CJK SC" font-size="9.00">开始前棋手离线</text>
</g>
<!-- STARTING&#45;&gt;CLOSED -->
<g id="edge11" class="edge">
<title>STARTING&#45;&gt;CLOSED</title>
<path fill="none" stroke="#6b5a45" d="M500.15,-316.65C517.88,-323.67 538.17,-330.83 557.24,-335.53 782.62,-391.12 844.46,-382.09 1076.31,-393.53 1110.04,-395.2 1118.71,-397.01 1152.31,-393.53 1167.59,-391.95 1183.88,-389.17 1199.11,-386.07"/>
<polygon fill="#6b5a45" stroke="#6b5a45" points="1199.88,-389.48 1208.94,-384 1198.44,-382.63 1199.88,-389.48"/>
<text text-anchor="middle" x="819.31" y="-386.33" font-family="Noto Sans CJK SC" font-size="9.00">双方明确离开/结束</text>
</g>
<!-- PLAYING&#45;&gt;PLAYING -->
<g id="edge5" class="edge">
<title>PLAYING&#45;&gt;PLAYING</title>
<path fill="none" stroke="#6b5a45" d="M682.99,-248.17C676.15,-268.78 682.24,-289.82 701.27,-289.82 717.18,-289.82 724.05,-275.12 721.88,-258.25"/>
<polygon fill="#6b5a45" stroke="#6b5a45" points="725.22,-257.13 719.56,-248.17 718.39,-258.7 725.22,-257.13"/>
<text text-anchor="middle" x="701.27" y="-302.62" font-family="Noto Sans CJK SC" font-size="9.00">合法落子</text>
<text text-anchor="middle" x="701.27" y="-292.62" font-family="Noto Sans CJK SC" font-size="9.00">无胜负</text>
</g>
<!-- PLAYING&#45;&gt;PAUSED -->
<g id="edge6" class="edge">
<title>PLAYING&#45;&gt;PAUSED</title>
<path fill="none" stroke="#6b5a45" d="M708.04,-193.24C716.95,-157.85 737.77,-98.72 781.31,-72.53 816.73,-51.22 863.29,-53.16 900.78,-60.33"/>
<polygon fill="#6b5a45" stroke="#6b5a45" points="900.09,-63.76 910.59,-62.37 901.51,-56.91 900.09,-63.76"/>
<text text-anchor="middle" x="819.31" y="-75.33" font-family="Noto Sans CJK SC" font-size="9.00">棋手断线/离开</text>
</g>
<!-- FINISHED -->
<g id="node6" class="node">
<title>FINISHED</title>
<ellipse fill="#e8e2f2" stroke="#6b5a45" cx="966.81" cy="-262.53" rx="61.54" ry="28.07"/>
<text text-anchor="middle" x="966.81" y="-265.93" font-family="Noto Sans CJK SC" font-size="12.00">FINISHED</text>
<text text-anchor="middle" x="966.81" y="-252.93" font-family="Noto Sans CJK SC" font-size="12.00">胜负或和棋</text>
</g>
<!-- PLAYING&#45;&gt;FINISHED -->
<g id="edge8" class="edge">
<title>PLAYING&#45;&gt;FINISHED</title>
<path fill="none" stroke="#6b5a45" d="M744.38,-238.12C756.17,-242.15 769.09,-246.02 781.31,-248.53 818.4,-256.14 860.44,-259.72 895.02,-261.35"/>
<polygon fill="#6b5a45" stroke="#6b5a45" points="894.89,-264.85 905.03,-261.78 895.19,-257.86 894.89,-264.85"/>
<text text-anchor="middle" x="819.31" y="-261.33" font-family="Noto Sans CJK SC" font-size="9.00">五连或满盘</text>
</g>
<!-- PLAYING&#45;&gt;CLOSED -->
<g id="edge12" class="edge">
<title>PLAYING&#45;&gt;CLOSED</title>
<path fill="none" stroke="#6b5a45" d="M730.48,-245.31C744.95,-256.59 763.3,-269.54 781.31,-278.53 915.94,-345.74 1094.32,-363.99 1191.6,-368.86"/>
<polygon fill="#6b5a45" stroke="#6b5a45" points="1191.47,-372.35 1201.62,-369.32 1191.8,-365.36 1191.47,-372.35"/>
<text text-anchor="middle" x="966.81" y="-357.33" font-family="Noto Sans CJK SC" font-size="9.00">双方明确离开/结束</text>
</g>
<!-- Undo -->
<g id="node9" class="node">
<title>Undo</title>
<path fill="#f2ead9" stroke="#6b5a45" d="M1037.31,-194.53C1037.31,-194.53 896.31,-194.53 896.31,-194.53 890.31,-194.53 884.31,-188.53 884.31,-182.53 884.31,-182.53 884.31,-166.53 884.31,-166.53 884.31,-160.53 890.31,-154.53 896.31,-154.53 896.31,-154.53 1037.31,-154.53 1037.31,-154.53 1043.31,-154.53 1049.31,-160.53 1049.31,-166.53 1049.31,-166.53 1049.31,-182.53 1049.31,-182.53 1049.31,-188.53 1043.31,-194.53 1037.31,-194.53"/>
<text text-anchor="middle" x="966.81" y="-177.93" font-family="Noto Sans CJK SC" font-size="12.00">附属状态：pendingUndo</text>
<text text-anchor="middle" x="966.81" y="-164.93" font-family="Noto Sans CJK SC" font-size="12.00">存在时禁止落子</text>
</g>
<!-- PLAYING&#45;&gt;Undo -->
<g id="edge16" class="edge">
<title>PLAYING&#45;&gt;Undo</title>
<path fill="none" stroke="#6b5a45" stroke-dasharray="5,2" d="M737.25,-200.38C750.57,-193.38 766.19,-186.41 781.31,-182.53 810.89,-174.95 843.99,-171.9 873.9,-171.07"/>
<polygon fill="#6b5a45" stroke="#6b5a45" points="873.99,-174.56 883.92,-170.86 873.85,-167.57 873.99,-174.56"/>
<text text-anchor="middle" x="819.31" y="-185.33" font-family="Noto Sans CJK SC" font-size="9.00">申请</text>
</g>
<!-- PAUSED&#45;&gt;PLAYING -->
<g id="edge7" class="edge">
<title>PAUSED&#45;&gt;PLAYING</title>
<path fill="none" stroke="#6b5a45" d="M909.33,-95.82C871.52,-108.08 821.5,-126.97 781.31,-151.53 764.15,-162.01 747.19,-176.36 733.4,-189.34"/>
<polygon fill="#6b5a45" stroke="#6b5a45" points="730.87,-186.92 726.09,-196.38 735.72,-191.97 730.87,-186.92"/>
<text text-anchor="middle" x="819.31" y="-154.33" font-family="Noto Sans CJK SC" font-size="9.00">双方恢复在线</text>
</g>
<!-- PAUSED&#45;&gt;CLOSED -->
<g id="edge13" class="edge">
<title>PAUSED&#45;&gt;CLOSED</title>
<path fill="none" stroke="#6b5a45" d="M1035.32,-85.98C1073.44,-92.72 1119.8,-106.46 1152.31,-134.53 1213.1,-187.01 1242.49,-280.31 1254.79,-332.5"/>
<polygon fill="#6b5a45" stroke="#6b5a45" points="1251.4,-333.38 1257.02,-342.36 1258.23,-331.84 1251.4,-333.38"/>
<text text-anchor="middle" x="1114.31" y="-137.33" font-family="Noto Sans CJK SC" font-size="9.00">双方明确离开/结束</text>
</g>
<!-- FINISHED&#45;&gt;STARTING -->
<g id="edge9" class="edge">
<title>FINISHED&#45;&gt;STARTING</title>
<path fill="none" stroke="#6b5a45" d="M913.28,-276.92C870.78,-287.78 809.19,-301.76 754.31,-307.53 707.43,-312.46 695.36,-309.07 648.24,-307.53 612.3,-306.35 572.76,-303.98 538.5,-301.58"/>
<polygon fill="#6b5a45" stroke="#6b5a45" points="538.74,-298.09 528.52,-300.87 538.25,-305.07 538.74,-298.09"/>
<text text-anchor="middle" x="701.27" y="-322.33" font-family="Noto Sans CJK SC" font-size="9.00">双方确认再战</text>
<text text-anchor="middle" x="701.27" y="-312.33" font-family="Noto Sans CJK SC" font-size="9.00">交换颜色+清盘</text>
</g>
<!-- FINISHED&#45;&gt;CLOSED -->
<g id="edge14" class="edge">
<title>FINISHED&#45;&gt;CLOSED</title>
<path fill="none" stroke="#6b5a45" d="M1015.63,-279.77C1052.9,-293.24 1105.93,-312.47 1152.31,-329.53 1169.5,-335.85 1188.17,-342.79 1205.17,-349.13"/>
<polygon fill="#6b5a45" stroke="#6b5a45" points="1204.37,-352.57 1214.96,-352.79 1206.82,-346.01 1204.37,-352.57"/>
<text text-anchor="middle" x="1114.31" y="-332.33" font-family="Noto Sans CJK SC" font-size="9.00">双方明确离开/结束</text>
</g>
<!-- Rematch -->
<g id="node10" class="node">
<title>Rematch</title>
<path fill="#f2ead9" stroke="#6b5a45" d="M1335.31,-98.53C1335.31,-98.53 1191.31,-98.53 1191.31,-98.53 1185.31,-98.53 1179.31,-92.53 1179.31,-86.53 1179.31,-86.53 1179.31,-70.53 1179.31,-70.53 1179.31,-64.53 1185.31,-58.53 1191.31,-58.53 1191.31,-58.53 1335.31,-58.53 1335.31,-58.53 1341.31,-58.53 1347.31,-64.53 1347.31,-70.53 1347.31,-70.53 1347.31,-86.53 1347.31,-86.53 1347.31,-92.53 1341.31,-98.53 1335.31,-98.53"/>
<text text-anchor="middle" x="1263.31" y="-81.93" font-family="Noto Sans CJK SC" font-size="12.00">附属状态：rematchReady</text>
<text text-anchor="middle" x="1263.31" y="-68.93" font-family="Noto Sans CJK SC" font-size="12.00">双方确认后换色</text>
</g>
<!-- FINISHED&#45;&gt;Rematch -->
<g id="edge18" class="edge">
<title>FINISHED&#45;&gt;Rematch</title>
<path fill="none" stroke="#6b5a45" stroke-dasharray="5,2" d="M1006.83,-240.82C1044.53,-219.58 1103,-185.93 1152.31,-154.53 1177.26,-138.64 1204.63,-119.74 1225.82,-104.76"/>
<polygon fill="#6b5a45" stroke="#6b5a45" points="1228.08,-107.45 1234.21,-98.81 1224.03,-101.74 1228.08,-107.45"/>
<text text-anchor="middle" x="1114.31" y="-202.33" font-family="Noto Sans CJK SC" font-size="9.00">一方确认</text>
</g>
<!-- End -->
<g id="node8" class="node">
<title>End</title>
<ellipse fill="#f6f1e7" stroke="#6b5a45" cx="1442.37" cy="-370.53" rx="36.12" ry="36.12"/>
<ellipse fill="none" stroke="#6b5a45" cx="1442.37" cy="-370.53" rx="40.12" ry="40.12"/>
<text text-anchor="middle" x="1442.37" y="-367.43" font-family="Noto Sans CJK SC" font-size="12.00">删除</text>
</g>
<!-- CLOSED&#45;&gt;End -->
<g id="edge15" class="edge">
<title>CLOSED&#45;&gt;End</title>
<path fill="none" stroke="#6b5a45" d="M1325.24,-370.53C1347.06,-370.53 1371.37,-370.53 1392.09,-370.53"/>
<polygon fill="#6b5a45" stroke="#6b5a45" points="1392.25,-374.03 1402.25,-370.53 1392.25,-367.03 1392.25,-374.03"/>
</g>
<!-- Undo&#45;&gt;PLAYING -->
<g id="edge17" class="edge">
<title>Undo&#45;&gt;PLAYING</title>
<path fill="none" stroke="#6b5a45" stroke-dasharray="5,2" d="M884.09,-189.11C844.52,-196.16 797.88,-204.48 761.74,-210.93"/>
<polygon fill="#6b5a45" stroke="#6b5a45" points="761.07,-207.49 751.84,-212.69 762.3,-214.38 761.07,-207.49"/>
<text text-anchor="middle" x="819.31" y="-208.33" font-family="Noto Sans CJK SC" font-size="9.00">同意/拒绝/取消</text>
</g>
<!-- Rematch&#45;&gt;STARTING -->
<g id="edge19" class="edge">
<title>Rematch&#45;&gt;STARTING</title>
<path fill="none" stroke="#6b5a45" stroke-dasharray="5,2" d="M1206.57,-58.42C1094.2,-21.44 835.24,45.55 648.24,-46.53 557.35,-91.29 494.76,-199.58 466.67,-257.13"/>
<polygon fill="#6b5a45" stroke="#6b5a45" points="463.47,-255.72 462.3,-266.25 469.78,-258.74 463.47,-255.72"/>
<text text-anchor="middle" x="819.31" y="-9.33" font-family="Noto Sans CJK SC" font-size="9.00">双方确认</text>
</g>
</g>
</svg>
